<svg xmlns="http://www.w3.org/2000/svg" xmlns:xlink="http://www.w3.org/1999/xlink" width="285.251" height="53.056" viewBox="0 0 285.251 53.056">
  <defs>
    <linearGradient id="linear-gradient" x1="0.048" y1="-0.495" x2="1" y2="-0.454" gradientUnits="objectBoundingBox">
      <stop offset="0" stop-color="#574b90"/>
      <stop offset="0.494" stop-color="#c44569"/>
      <stop offset="1" stop-color="#f5cd79"/>
    </linearGradient>
  </defs>
  <path id="Logo" d="M49.617-9.437a2.849,2.849,0,0,1,2.015.6,2.062,2.062,0,0,1,.632,1.564A4.393,4.393,0,0,1,51.332-4.5a3.608,3.608,0,0,1-2.917,1.263,35,35,0,0,1-8.542-.722A51.757,51.757,0,0,1,29.556,10.925Q23.51,16.85,17.435,16.85q-6.256,0-9.324-7.279T5.043-10.1a108.761,108.761,0,0,1,1.5-19.009,8.971,8.971,0,0,1,1.534-4.241,4.382,4.382,0,0,1,3.4-1.113q3.97,0,3.97,3.429a12.808,12.808,0,0,1-.12,1.323,120.3,120.3,0,0,0-1.8,19.61q0,9.2,1.534,13.986t4.6,4.782q3.128,0,6.8-4.331A48.74,48.74,0,0,0,33.2-6.55a14.933,14.933,0,0,1-5.534-5.925A18.15,18.15,0,0,1,25.8-20.867,19.543,19.543,0,0,1,27.27-28.9a10.887,10.887,0,0,1,4.03-4.9,10.383,10.383,0,0,1,5.685-1.624,7.463,7.463,0,0,1,6.106,2.767,11.658,11.658,0,0,1,2.256,7.579,44.03,44.03,0,0,1-3.008,15.1A43.818,43.818,0,0,0,49.617-9.437ZM31.872-21.288q0,5.9,3.79,8.722a35.4,35.4,0,0,0,2.346-11.129,7.847,7.847,0,0,0-.662-3.7,2.01,2.01,0,0,0-1.8-1.173,3.017,3.017,0,0,0-2.647,1.895A11.518,11.518,0,0,0,31.872-21.288ZM66.4,16.85a19.432,19.432,0,0,1-9.655-2.406,17.33,17.33,0,0,1-6.827-7.068A23.1,23.1,0,0,1,47.392-3.783,36.94,36.94,0,0,1,50.73-19.9a25.938,25.938,0,0,1,9.083-10.768,22.614,22.614,0,0,1,12.723-3.79,19.432,19.432,0,0,1,9.655,2.406,17.33,17.33,0,0,1,6.827,7.068,23.1,23.1,0,0,1,2.526,11.159A36.94,36.94,0,0,1,88.206,2.293,25.938,25.938,0,0,1,79.123,13.06,22.614,22.614,0,0,1,66.4,16.85Zm.6-7.1a12.794,12.794,0,0,0,8.271-2.887,18.244,18.244,0,0,0,5.5-8.031A33.033,33.033,0,0,0,82.7-12.806q0-7.158-3.008-10.858a9.546,9.546,0,0,0-7.76-3.7,12.673,12.673,0,0,0-8.181,2.857,18.57,18.57,0,0,0-5.534,8,32.312,32.312,0,0,0-1.985,11.7q0,7.158,3.008,10.858A9.545,9.545,0,0,0,67,9.752Zm44.153,7.1a58.656,58.656,0,0,1-7.88-.6,5.436,5.436,0,0,1-3.308-1.263,4.133,4.133,0,0,1-.782-3.128,143.87,143.87,0,0,1,1.985-14.708q1.564-8.752,3.79-16.873a3.126,3.126,0,0,1,1.684-2.105,7.745,7.745,0,0,1,3.308-.6q3.669,0,3.669,2.045a6.181,6.181,0,0,1-.361,1.925,112.565,112.565,0,0,0-3.128,12.9,154.627,154.627,0,0,0-2.226,15.43q1.8.18,4.09.18,10.527,0,15.73-6.376t5.2-17.024q0-7.158-4.09-11.068t-11.55-3.91a31.251,31.251,0,0,0-9.534,1.5,34.968,34.968,0,0,0-8.512,3.97,2.9,2.9,0,0,1-1.684.541,1.877,1.877,0,0,1-1.624-.872,3.67,3.67,0,0,1-.6-2.135,5.164,5.164,0,0,1,.481-2.376,4.825,4.825,0,0,1,1.624-1.714,31.339,31.339,0,0,1,9.745-4.3,42.233,42.233,0,0,1,10.768-1.474,29.2,29.2,0,0,1,12.693,2.557,18.57,18.57,0,0,1,8.241,7.489,23.189,23.189,0,0,1,2.887,11.911,33.2,33.2,0,0,1-3.609,15.851,25.186,25.186,0,0,1-10.527,10.5A34.261,34.261,0,0,1,111.155,16.85ZM172.632-34.1a4.526,4.526,0,0,1,2.647.752,2.192,2.192,0,0,1,1.083,1.835,4.131,4.131,0,0,1-1.2,3.1,4.71,4.71,0,0,1-3.429,1.173q-3.489,0-5.294.06l-1.083,6.5q-1.083,6.436-1.323,7.88l-1.263,7.88q-1.323,8.843-2.105,14.8,1.263-.06,3.429-.06,3.188,0,4.331.842a2.936,2.936,0,0,1,1.143,2.526,3.392,3.392,0,0,1-1.233,2.647,5.071,5.071,0,0,1-3.459,1.083q-1.5,0-4.752-.12-3.008-.12-3.97-.12a57.527,57.527,0,0,0-8.3.662,21.751,21.751,0,0,1-2.827.3,3.45,3.45,0,0,1-2.226-.722,2.537,2.537,0,0,1-.9-2.105,3.771,3.771,0,0,1,1.925-3.369,10.576,10.576,0,0,1,5.414-1.263l2.827-.06.18-1.323q1.444-9.625,2.105-13.595l1.323-7.88q1.2-6.978,2.166-14.377l-5.053.06a4.726,4.726,0,0,1-2.978-.692,2.428,2.428,0,0,1-.812-1.955q0-4.09,5.9-4.391,2.767-.12,6.737-.12Zm7.7,50.951a5.223,5.223,0,0,1-4-1.444,5.317,5.317,0,0,1-1.353-3.79,6.05,6.05,0,0,1,1.534-4.331,6.658,6.658,0,0,1,8.3-.331,5.042,5.042,0,0,1,1.353,3.82A6.172,6.172,0,0,1,184.6,15.2,5.6,5.6,0,0,1,180.332,16.85Zm61-13.715a1.39,1.39,0,0,1,1.233.722,3.731,3.731,0,0,1,.451,1.985,5.677,5.677,0,0,1-1.143,3.73,22.175,22.175,0,0,1-6.527,5.654,16.466,16.466,0,0,1-7.61,1.624,20.311,20.311,0,0,1-5.775-.782,67.737,67.737,0,0,1-6.436-2.346,58.91,58.91,0,0,0-6.617-2.466,9.9,9.9,0,0,1-9.2,5.594,8.669,8.669,0,0,1-5.384-1.534,4.742,4.742,0,0,1-2.015-3.94,5.8,5.8,0,0,1,2.827-4.9,12.989,12.989,0,0,1,7.519-1.955h.782l1.083-17.5a27.784,27.784,0,0,1,2.166-9.925,19.614,19.614,0,0,1,4.993-6.677,19.062,19.062,0,0,1,6.316-3.639,22.747,22.747,0,0,1,7.519-1.233q6.5,0,9.986,3.369a11.659,11.659,0,0,1,3.489,8.783,11.631,11.631,0,0,1-1.323,5.925,4.078,4.078,0,0,1-3.669,2.256,3.978,3.978,0,0,1-2.647-.812,2.862,2.862,0,0,1-.962-2.316,14.545,14.545,0,0,1,.241-1.985,14.526,14.526,0,0,0,.361-3.008,5.405,5.405,0,0,0-1.474-4,6.1,6.1,0,0,0-4.481-1.474,10.062,10.062,0,0,0-8.181,3.459q-2.887,3.459-3.669,10.858L211.793.247a42.474,42.474,0,0,1-.782,4.993q3.85.662,9.625,2.105,3.369.842,5.173,1.2A16.491,16.491,0,0,0,229,8.91a13.977,13.977,0,0,0,5.985-1.173,14.409,14.409,0,0,0,4.722-3.76A2.111,2.111,0,0,1,241.328,3.135ZM253.3,16.85A14.05,14.05,0,0,1,245.81,14.8a14.077,14.077,0,0,1-5.263-5.925,20.422,20.422,0,0,1-1.925-9.174,37.213,37.213,0,0,1,3.91-16.933,30.67,30.67,0,0,1,11.55-12.512q7.64-4.722,18.347-4.722a44.965,44.965,0,0,1,5.925.421,32.413,32.413,0,0,1,5.745,1.263,2.228,2.228,0,0,1,1.684,2.406,4.488,4.488,0,0,1-1.173,2.948,3.5,3.5,0,0,1-2.737,1.384,3.206,3.206,0,0,1-.722-.06q-3.128-.722-5.354-1.053a31.911,31.911,0,0,0-4.692-.331,22.294,22.294,0,0,0-12.993,3.7,22.612,22.612,0,0,0-8,9.775A32.473,32.473,0,0,0,247.464-.9q0,5.113,2.015,7.91a6.206,6.206,0,0,0,5.263,2.8A8.5,8.5,0,0,0,261.179,6.8q2.767-3.008,5.053-9.745a144.386,144.386,0,0,0,4.512-18.287,3.2,3.2,0,0,1,1.444-2.286,5.945,5.945,0,0,1,2.887-.6q4.271,0,4.271,2.767a5.14,5.14,0,0,1-.18,1.2q-1.564,5.835-2.857,12.9A64.981,64.981,0,0,0,275.015,3.5a8.89,8.89,0,0,0,.962,4.722,3.276,3.276,0,0,0,2.948,1.474A6.068,6.068,0,0,0,282.594,8.4a29.113,29.113,0,0,0,4.391-4.421,2.112,2.112,0,0,1,1.624-.842,1.39,1.39,0,0,1,1.233.722,3.731,3.731,0,0,1,.451,1.985,5.676,5.676,0,0,1-1.143,3.73,27.3,27.3,0,0,1-5.775,5.414,12.29,12.29,0,0,1-6.918,1.865,9.51,9.51,0,0,1-6.8-2.436,11.429,11.429,0,0,1-3.248-6.888Q261.961,16.85,253.3,16.85Z" transform="translate(-5.043 35.424)" fill="url(#linear-gradient)"/>
</svg>
